**ABCDEFGHIJKLMNOPQRSTUVWXYZabcdefghijklmnopqrstuvwxyz**************************
**PARASOLID !"#$%&'()*+,-./:;<=>?@[\]^_`{|}~0123456789**************************
**PART1;
MC=AMD64;
MC_MODEL=Intel64 Family 6 Model 85 Stepping 0, GenuineIntel;
MC_ID=unknown;
OS=Windows_NT;
OS_RELEASE=unknown;
FRU=Parasolid Version 33.1, build 260,  4-25-2022;
APPL=SOLIDWORKS 2022-2022207;
SITE=;
USER=unknown;
FORMAT=text;
GUISE=transmit;
KEY=FILEBC0C933A-163D-48CC-87AD-FE3A9D080D77.x_t;
DATE=Tue Jun 24 11:09:29 2025;
**PART2;
SCH=SCH_3301260_33103;
USFLD_SIZE=0;
**PART3;
**END_OF_HEADER*****************************************************************
T51 : TRANSMIT FILE created by modeller version 330126017 SCH_1600000_160040 12
 1 2575 2 3 0 0 0 0 1e3 1e-8 0 4 0 1 0 1 1 5 6 7 8 9 10 11 81 2 2 2531 12 1 13 0
 0 0 0 14 70 3 0 4 T1 0 0 9 20 1 15 15 13 5 334 0 1 0 16 0 0 17 0 51 6 2363 0 18
 19 0 0 +0 -.001733718444820955 2e-4 1 0 0 2e-4 0 0 -1 31 7 2340 0 10 20 0 0 --.
0025 -.001733718444820955 2e-4 1 0 0 0 0 -1 2e-4 29 8 2325 0 11 21 0 -.002036453
394181775 -.001733718444820955 0 19 9 100 0 1 17 0 22 V16 10 2338 0 ?23 0 24 7 0
 0 1 18 11 2323 0 25 0 26 8 ?1 17 25 0 27 28 29 11 30 31 0 32 +18 26 2315 0 30 1
1 33 21 ?1 17 30 0 34 35 36 26 25 31 0 37 -18 33 2312 0 23 26 38 39 ?1 29 21 231
7 0 26 39 8 -.002036453394181775 -.001933718444820955 2e-4 29 39 2314 0 33 40 21
 -.0025 -.001933718444820955 2e-4 29 40 2260 0 38 41 39 .002036453394181775 -.00
1733718444820955 0 18 38 2258 0 42 33 43 40 ?1 29 41 2247 0 43 44 40 .0025 -.001
933718444820955 2e-4 18 43 2245 0 45 38 46 41 ?1 29 44 2244 0 46 47 41 .00203645
3394181775 -.001933718444820955 2e-4 18 46 2242 0 48 43 49 44 ?1 29 47 2149 0 49
 50 44 .002036453394181775 -.001933718444820955 .000769234951248379 18 49 2145 0
 51 46 52 47 ?1 29 50 2029 0 52 53 47 .0025 -.001733718444820955 .001 18 52 2027
 0 54 49 55 50 ?1 29 53 2023 0 55 56 50 .002036453394181775 -.001733718444820955
 .001 18 55 2021 0 57 52 58 53 ?1 29 56 2020 0 58 59 53 .0025 -.0017337184448209
55 0 18 58 2018 0 60 55 61 56 ?1 29 59 1973 0 61 62 56 -.002036453394181775 -.00
1782217932445055 .001 18 61 1971 0 63 58 64 59 ?1 29 62 1970 0 64 65 59 -.0022 -
.001733718444820955 .001 18 64 1966 0 66 61 67 62 ?1 29 65 1960 0 67 68 62 -.002
48284271247462 -.001933718444820955 .001 18 67 1956 0 69 64 70 65 ?1 29 68 1604
 0 70 71 65 -.002519696540022235 -.00119737720398921 8e-4 18 70 1602 0 72 67 73
 68 ?1 29 71 446 0 73 74 68 -.0015 .0011917852083275 0 18 73 444 0 75 70 76 71 ?
1 29 74 239 0 77 78 71 -.002519696540022235 -.001733718444820955 0 18 77 206 0 7
9 80 81 74 ?1 29 78 240 0 81 82 74 -.002519696540022235 -.00119737720398921 0 18
 81 207 0 83 77 84 78 ?1 29 82 241 0 84 85 78 -.0027 -.00119737720398921 0 18 84
 208 0 86 81 87 82 ?1 29 85 242 0 87 88 82 -.0027 .0011917852083275 0 18 87 209
 0 89 84 90 85 ?1 29 88 247 0 90 91 85 .0027 .0011917852083275 0 18 90 214 0 92
 87 93 88 ?1 29 91 248 0 93 94 88 .0027 -.00119737720398921 0 18 93 215 0 95 90
 96 91 ?1 29 94 249 0 96 97 91 .002519696540022235 -.00119737720398921 0 18 96 2
16 0 98 93 99 94 ?1 29 97 250 0 99 100 94 .002519696540022235 -.0017337184448209
55 0 18 99 217 0 101 96 102 97 ?1 29 100 99 0 76 103 97 -.00192900863361965 -.00
1733718444820955 .002 18 76 97 0 104 73 105 100 ?1 29 103 96 0 105 106 100 -.002
519696540022235 -.001733718444820955 .002 18 105 94 0 107 76 108 103 ?1 29 106 8
1 0 108 109 103 -.002519696540022235 .00255 .002 18 108 79 0 110 105 111 106 ?1
 29 109 78 0 111 112 106 .002519696540022235 .00255 .002 18 111 76 0 113 108 114
 109 ?1 29 112 63 0 114 115 109 .002519696540022235 -.001733718444820955 .002 18
 114 61 0 116 111 117 112 ?1 29 115 60 0 117 118 112 .00192900863361965 -.001733
718444820955 .002 18 117 58 0 119 114 120 115 ?1 29 118 57 0 120 121 115 .001112
727078440592 -.00255 .002 18 120 55 0 122 117 80 118 ?1 29 121 54 0 80 123 118 -
.001112727078440592 -.00255 .002 18 80 52 0 124 120 77 121 ?1 29 123 1181 0 102
 125 121 .002519696540022235 .00255 2e-4 18 102 862 0 126 99 127 123 ?1 29 125 1
182 0 127 128 123 -.002519696540022235 .00255 2e-4 18 127 863 0 129 102 130 125
 ?1 29 128 1183 0 130 131 125 .00192900863361965 -.001733718444820955 2e-4 18 13
0 876 0 132 127 133 128 ?1 29 131 1184 0 133 134 128 .001112727078440592 -.00255
 2e-4 18 133 877 0 135 130 136 131 ?1 29 134 1185 0 136 137 131 -.00111272707844
0592 -.00255 2e-4 18 136 878 0 138 133 139 134 ?1 29 137 1186 0 139 140 134 -.00
192900863361965 -.001733718444820955 2e-4 18 139 879 0 141 136 142 137 ?1 29 140
 1193 0 142 143 137 .002519696540022235 .0011917852083275 2e-4 18 142 875 0 144
 139 145 140 ?1 29 143 1195 0 145 146 140 -.002519696540022235 .0011917852083275
 2e-4 18 145 864 0 147 142 148 143 ?1 29 146 1197 0 148 149 143 -.0015 .00119178
52083275 2e-4 18 148 928 0 150 145 151 146 ?1 29 149 1198 0 151 152 146 -.002208
299405003735 .0011917852083275 0 18 151 912 0 153 148 154 149 ?1 29 152 1199 0 1
54 155 149 .002208299405003735 .0011917852083275 2e-4 18 154 910 0 156 151 157 1
52 ?1 29 155 1200 0 157 158 152 .0015 .0011917852083275 0 18 157 894 0 159 154 1
60 155 ?1 29 158 1209 0 161 162 155 .002208299405003735 .0011917852083275 0 18 1
61 909 0 163 164 165 158 ?1 29 162 1210 0 165 166 158 .002468796260711175 .00119
17852083275 0 18 165 867 0 167 161 168 162 ?1 29 166 1216 0 168 169 162 .0020364
53394181775 -.00119737720398921 0 18 168 900 0 170 165 171 166 ?1 29 169 1217 0
 171 172 166 .00177498311101433 -.00119737720398921 0 18 171 898 0 173 168 174 1
69 ?1 29 172 1218 0 174 175 169 .0015 -.00119737720398921 0 18 174 896 0 176 171
 177 172 ?1 29 175 1219 0 160 178 172 .0015 .0011917852083275 2e-4 18 160 911 0
 179 157 180 175 ?1 29 178 1220 0 180 181 175 .002468796260711175 .0011917852083
275 2e-4 18 180 873 0 182 160 183 178 ?1 29 181 1225 0 183 184 178 .002036453394
181775 -.001733718444820955 2e-4 18 183 865 0 185 180 186 181 ?1 29 184 1226 0 1
86 187 181 .002036453394181775 -.00119737720398921 2e-4 18 186 899 0 188 183 189
 184 ?1 29 187 1227 0 189 190 184 .00177498311101433 -.00119737720398921 2e-4 18
 189 897 0 191 186 164 187 ?1 29 190 1228 0 164 192 187 .0015 -.0011973772039892
1 2e-4 18 164 895 0 193 189 161 190 ?1 29 192 1230 0 194 195 190 -.0015 -.001197
37720398921 0 18 194 926 0 196 197 198 192 ?1 29 195 1231 0 198 199 192 -.001774
98311101433 -.00119737720398921 0 18 198 924 0 200 194 201 195 ?1 29 199 1232 0
 201 202 195 -.002036453394181775 -.00119737720398921 0 18 201 922 0 28 198 203
 199 ?1 29 202 1238 0 203 204 199 -.002468796260711175 .0011917852083275 0 18 20
3 874 0 205 201 206 202 ?1 29 204 1239 0 177 207 202 -.002208299405003735 .00119
17852083275 2e-4 18 177 929 0 208 174 209 204 ?1 29 207 1240 0 209 210 204 -.001
5 -.00119737720398921 2e-4 18 209 925 0 211 177 212 207 ?1 29 210 1241 0 212 213
 207 -.00177498311101433 -.00119737720398921 2e-4 18 212 923 0 214 209 215 210 ?
1 29 213 1242 0 215 216 210 -.002036453394181775 -.00119737720398921 2e-4 18 215
 921 0 217 212 197 213 ?1 29 216 1248 0 197 218 213 -.002468796260711175 .001191
7852083275 2e-4 18 197 913 0 219 215 194 216 ?1 29 218 1546 0 206 220 216 .0027
 -.00119737720398921 8e-4 18 206 1470 0 221 203 222 218 ?1 29 220 1547 0 222 223
 218 .0027 .0011917852083275 8e-4 18 222 1471 0 224 206 225 220 ?1 29 223 1552 0
 225 226 220 .002519696540022235 .0011917852083275 8e-4 18 225 1472 0 227 222 22
8 223 ?1 29 226 1553 0 228 229 223 .002519696540022235 -.00119737720398921 8e-4
 18 228 1466 0 230 225 231 226 ?1 29 229 1789 0 231 232 226 -.0027 .001191785208
3275 8e-4 18 231 1713 0 233 228 234 229 ?1 29 232 1790 0 234 235 229 -.0027 -.00
119737720398921 8e-4 18 234 1714 0 236 231 237 232 ?1 29 235 1792 0 237 238 232
 -.002519696540022235 .0011917852083275 8e-4 18 237 1707 0 239 234 240 235 ?1 29
 238 1936 0 240 241 235 -.002036453394181775 -.001733718444820955 2e-4 18 240 18
93 0 242 237 243 238 ?1 29 241 1938 0 244 245 238 -.0025 -.001733718444820955 0
 18 244 1888 0 246 243 247 241 ?1 29 245 1939 0 247 248 241 -.0025 -.00173371844
4820955 .001 18 247 1886 0 249 244 250 245 ?1 29 248 1940 0 250 251 245 -.002036
453394181775 -.001733718444820955 .001 18 250 1885 0 252 247 253 248 ?1 29 251 1
943 0 243 254 248 -.0025 -.001933718444820955 .001 18 243 1890 0 255 240 244 251
 ?1 29 254 2011 0 253 256 251 -.002036453394181775 -.001933718444820955 .0007692
34951248379 18 253 1997 0 257 250 258 254 ?1 29 256 2130 0 258 259 254 .0025 -.0
01933718444820955 .001 18 258 2074 0 260 253 261 256 ?1 29 259 2198 0 261 262 25
6 .002036453394181775 -.001782217932445055 .001 18 261 2183 0 263 258 264 259 ?1
 29 262 2199 0 264 265 259 .0022 -.001733718444820955 .001 18 264 2185 0 266 261
 267 262 ?1 29 265 2201 0 267 0 262 .00248284271247462 -.001933718444820955 .001
 18 267 2186 0 268 264 0 265 ?1 17 268 0 269 266 51 267 270 271 0 272 -15 269 21
89 0 266 273 0 17 266 0 269 263 268 264 272 274 0 275 +17 51 0 269 268 263 49 27
6 277 0 270 +17 270 0 278 279 280 49 268 271 0 281 +16 271 2150 0 ?270 282 283 2
84 0 0 1 17 272 0 285 286 287 267 266 274 0 280 -15 285 2169 0 272 16 0 17 286 0
 285 288 272 258 280 289 0 0 -17 287 0 285 272 288 264 54 290 0 0 +16 274 2179 0
 ?266 277 0 291 292 292 1 17 280 0 278 270 260 267 286 289 0 0 +15 278 2098 0 27
9 293 0 17 260 0 278 280 294 258 295 296 0 297 +16 289 2064 0 ?280 298 296 299 0
 0 1 16 298 2146 0 ?279 300 289 301 0 0 1 16 296 2246 0 ?260 289 302 303 0 0 1 3
0 299 2119 0 289 303 301 0 +.002036453394181775 -.001933718444820955 .001 -1 0 0
 30 303 2120 0 296 304 299 0 +.0025 -.001933718444820955 0 0 0 1 30 301 2118 0 2
98 299 305 0 +.002036453394181775 -.001933718444820955 0 0 0 -1 30 305 2116 0 30
6 301 307 0 +.0025 -.001733718444820955 0 0 0 1 16 306 2040 0 ?308 309 292 305 0
 0 1 30 307 2115 0 290 305 310 0 +.002036453394181775 -.001733718444820955 .001
 -1 0 0 16 290 2044 0 ?287 302 309 307 309 309 1 30 310 2114 0 302 307 311 0 +.0
02036453394181775 -.001733718444820955 0 0 0 -1 16 302 2051 0 ?312 296 290 310 0
 0 1 30 311 2112 0 300 310 313 0 +.002036453394181775 -.001933718444820955 .001
 0 1 0 16 300 2161 0 ?57 314 298 311 0 0 1 30 313 2111 0 314 311 315 0 +.0025 -.
001933718444820955 .001 0 1 0 16 314 2050 0 ?288 316 300 313 0 0 1 31 315 2008 0
 316 313 317 0 +-.0022 -.002033718444820955 .001 0 0 -1 -1 0 0 3e-4 16 316 1991
 0 ?66 318 314 315 319 319 1 31 317 2007 0 318 315 320 0 +-.002036453394181775 -
.002033718444820955 .001 -1 0 0 0 0 1 .0002515005123758955 16 318 1993 0 ?321 31
9 316 317 0 0 1 30 320 1935 0 322 317 323 0 +-.002036453394181775 -.001933718444
820955 0 0 0 1 16 322 2316 0 ?257 324 325 320 0 0 1 30 323 1934 0 324 320 326 0
 +-.002036453394181775 -.001933718444820955 .001 -1 0 0 16 324 1957 0 ?255 327 3
22 323 0 0 1 30 326 1933 0 327 323 328 0 +-.0025 -.001933718444820955 0 0 0 -1 1
6 327 1879 0 ?329 330 324 326 0 0 1 30 328 1931 0 331 326 332 0 +-.0020364533941
81775 -.001733718444820955 0 0 0 1 16 331 1857 0 ?333 334 319 328 0 0 1 30 332 1
930 0 335 328 336 0 +-.002036453394181775 -.001733718444820955 .001 -1 0 0 16 33
5 1861 0 ?337 325 334 332 334 334 1 30 336 1929 0 325 332 338 0 +-.0025 -.001733
718444820955 0 0 0 -1 16 325 1865 0 ?339 322 335 336 0 0 1 30 338 1925 0 330 336
 340 0 +-.0025 -.001933718444820955 .001 0 1 0 16 330 1868 0 ?341 342 327 338 0
 0 1 30 340 1924 0 342 338 343 0 +-.002036453394181775 -.001933718444820955 .001
 0 1 0 16 342 1972 0 ?252 344 330 340 0 0 1 30 343 1778 0 344 340 345 0 +-.00251
9696540022235 .002008997441212465 8e-4 221467884760907e-29 -1 0 16 344 1662 0 ?7
2 346 342 343 0 0 1 30 345 1772 0 346 343 347 0 +-.002519696540022235 -.00119737
720398921 8e-4 1 0 0 16 346 1684 0 ?348 349 344 345 0 0 1 30 347 1771 0 349 345
 350 0 +-.0027 .0011917852083275 8e-4 0 -1 0 16 349 1683 0 ?236 351 346 347 0 0
 1 30 350 1770 0 351 347 352 0 +-.002519696540022235 .0011917852083275 8e-4 -1 -
2405283121287175e-30 0 16 351 1682 0 ?233 353 349 350 0 0 1 30 352 1541 0 353 35
0 354 0 +.002519696540022235 -.001433458587924558 8e-4 0 1 0 16 353 1418 0 ?355
 356 351 352 0 0 1 30 354 1528 0 356 352 357 0 +.002519696540022235 .00119178520
83275 8e-4 -1 0 0 16 356 1430 0 ?227 358 353 354 0 0 1 30 357 1527 0 358 354 359
 0 +.0027 .0011917852083275 8e-4 0 1 0 16 358 1429 0 ?224 360 356 357 0 0 1 30 3
59 1526 0 360 357 361 0 +.002519696540022235 -.00119737720398921 8e-4 1 0 0 16 3
60 1428 0 ?221 362 358 359 0 0 1 31 361 1180 0 363 359 364 0 +-.0023385478328574
55 .0011917852083275 2e-4 0 0 -1 -1 0 0 .0001302484278537194 16 363 818 0 ?219 3
65 366 361 0 0 1 30 364 1179 0 365 361 367 0 +-.002468796260711175 .001191785208
3275 2e-4 -1 -37515039361231e-28 0 16 365 697 0 ?368 369 363 364 0 0 1 30 367 11
74 0 369 364 370 0 +-.002036453394181775 -.001733718444820955 2e-4 0 1 0 16 369
 842 0 ?217 371 365 367 0 0 1 31 370 1173 0 371 367 372 0 +-.001905718252598055
 -.00119737720398921 2e-4 0 0 -1 -1 0 0 .000130735141583722 16 371 846 0 ?214 37
3 369 370 0 0 1 30 372 1172 0 373 370 374 0 +-.0015 -.00119737720398921 2e-4 1 0
 0 16 373 850 0 ?211 375 371 372 0 0 1 30 374 1171 0 375 372 376 0 +-.0015 -.001
19737720398921 2e-4 -1815200451666545e-31 1 0 16 375 854 0 ?377 378 373 374 0 0
 1 30 376 1170 0 378 374 379 0 +-.0015 .0011917852083275 2e-4 -1 -30614233608731
75e-31 0 16 378 858 0 ?208 380 375 376 0 0 1 31 379 1169 0 362 376 381 0 +-.0023
38547832857455 .0011917852083275 0 0 0 -1 -1 0 0 .0001302484278537194 16 362 686
 0 ?382 383 360 379 0 0 1 30 381 1163 0 383 379 384 0 +-.002036453394181775 -.00
1733718444820955 0 0 1 0 16 383 2324 0 ?28 385 362 381 0 0 1 31 384 1162 0 385 3
81 386 0 +-.001905718252598055 -.00119737720398921 0 0 0 -1 -1 0 0 .000130735141
583722 16 385 674 0 ?387 388 383 384 0 0 1 30 386 1161 0 388 384 389 0 +-.0015 -
.00119737720398921 0 1 0 0 16 388 677 0 ?390 391 385 386 0 0 1 30 389 1160 0 391
 386 392 0 +-.0015 -.00119737720398921 0 -1815200451666545e-31 1 0 16 391 680 0
 ?75 366 388 389 0 0 1 30 392 1159 0 366 389 393 0 +-.0015 .0011917852083275 0 -
1 -3061423360873175e-31 0 16 366 683 0 ?394 363 391 392 0 0 1 30 393 1158 0 380
 392 395 0 +-.002208299405003735 .0011917852083275 2e-4 0 0 -1 16 380 861 0 ?153
 396 378 393 0 0 1 30 395 1157 0 396 393 397 0 +-.0015 .0011917852083275 2e-4 0
 0 -1 16 396 857 0 ?398 399 380 395 0 0 1 30 397 1156 0 399 395 400 0 +-.0015 -.
00119737720398921 2e-4 0 0 -1 16 399 853 0 ?196 401 396 397 0 0 1 30 400 1155 0
 401 397 402 0 +-.00177498311101433 -.00119737720398921 2e-4 0 0 -1 16 401 849 0
 ?200 403 399 400 0 0 1 30 402 1154 0 403 400 404 0 +-.002036453394181775 -.0011
9737720398921 2e-4 0 0 -1 16 403 845 0 ?405 406 401 402 0 0 1 30 404 1148 0 406
 402 407 0 +-.002468796260711175 .0011917852083275 2e-4 0 0 -1 16 406 821 0 ?408
 409 403 404 0 0 1 30 407 1147 0 410 404 411 0 +.0015 -.00119737720398921 2e-4 -
1815200451666545e-31 -1 0 16 410 775 0 ?193 412 413 407 0 0 1 30 411 1146 0 412
 407 414 0 +.0015 -.00119737720398921 2e-4 1 0 0 16 412 779 0 ?191 415 410 411 0
 0 1 31 414 1145 0 415 411 416 0 +.001905718252598055 -.00119737720398921 2e-4 0
 0 -1 1 0 0 .000130735141583722 16 415 783 0 ?188 417 412 414 0 0 1 30 416 1144
 0 417 414 418 0 +.002036453394181775 -.001733718444820955 2e-4 0 -1 0 16 417 78
7 0 ?185 419 415 416 0 0 1 30 418 1139 0 419 416 420 0 +.002468796260711175 .001
1917852083275 2e-4 -1 2813627952092325e-30 0 16 419 693 0 ?182 421 417 418 0 0 1
 31 420 1138 0 421 418 422 0 +.002338547832857455 .0011917852083275 2e-4 0 0 -1
 1 0 0 .0001302484278537194 16 421 810 0 ?423 424 419 420 0 0 1 30 422 1137 0 42
4 420 425 0 +.0015 .0011917852083275 2e-4 -1 3061423360873175e-31 0 16 424 814 0
 ?179 426 421 422 0 0 1 30 425 1136 0 409 422 427 0 +.0015 -.00119737720398921 0
 -1815200451666545e-31 -1 0 16 409 659 0 ?428 429 406 425 0 0 1 30 427 1135 0 42
9 425 430 0 +.0015 -.00119737720398921 0 1 0 0 16 429 662 0 ?431 432 409 427 0 0
 1 31 430 1134 0 432 427 433 0 +.001905718252598055 -.00119737720398921 0 0 0 -1
 1 0 0 .000130735141583722 16 432 665 0 ?434 435 429 430 0 0 1 30 433 1133 0 435
 430 436 0 +.002036453394181775 -.001733718444820955 0 0 -1 0 16 435 668 0 ?437
 438 432 433 0 0 1 31 436 1127 0 438 433 439 0 +.002338547832857455 .00119178520
83275 0 0 0 -1 1 0 0 .0001302484278537194 16 438 653 0 ?440 413 435 436 0 0 1 30
 439 1126 0 413 436 441 0 +.0015 .0011917852083275 0 -1 3061423360873175e-31 0 1
6 413 656 0 ?442 410 438 439 0 0 1 30 441 1125 0 426 439 443 0 +.0015 .001191785
2083275 2e-4 0 0 -1 16 426 817 0 ?159 444 424 441 0 0 1 30 443 1124 0 444 441 44
5 0 +.002208299405003735 .0011917852083275 2e-4 0 0 -1 16 444 813 0 ?163 446 426
 443 0 0 1 30 445 1123 0 446 443 447 0 +.002468796260711175 .0011917852083275 2e
-4 0 0 -1 16 446 696 0 ?448 449 444 445 0 0 1 30 447 1117 0 449 445 450 0 +.0020
36453394181775 -.00119737720398921 2e-4 0 0 -1 16 449 786 0 ?170 451 446 447 0 0
 1 30 450 1116 0 451 447 452 0 +.00177498311101433 -.00119737720398921 2e-4 0 0
 -1 16 451 782 0 ?173 453 449 450 0 0 1 30 452 1115 0 453 450 454 0 +.0015 -.001
19737720398921 2e-4 0 0 -1 16 453 778 0 ?176 455 451 452 0 0 1 30 454 1092 0 455
 452 456 0 +-.001112727078440592 -.00255 2e-4 .707106781186552 -.707106781186544
 0 16 455 646 0 ?457 458 453 454 0 0 1 30 456 1091 0 458 454 459 0 +-.0011127270
78440592 -.00255 2e-4 1 0 0 16 458 647 0 ?460 461 455 456 0 0 1 30 459 1090 0 46
1 456 462 0 +.001112727078440592 -.00255 2e-4 .707106781186552 .707106781186544
 0 16 461 648 0 ?463 464 458 459 0 0 1 30 462 1089 0 464 459 465 0 +.00192900863
361965 -.001733718444820955 2e-4 1 0 0 16 464 649 0 ?466 467 461 462 0 0 1 30 46
5 1088 0 467 462 468 0 +-.002519696540022235 .0011917852083275 2e-4 223511487400
3975e-30 -1 0 16 467 644 0 ?469 470 464 465 0 0 1 30 468 1087 0 470 465 471 0 +-
.002519696540022235 .00255 2e-4 -1 0 0 16 470 643 0 ?472 473 467 468 0 0 1 30 47
1 1086 0 473 468 474 0 +.002519696540022235 .0011917852083275 2e-4 0 1 0 16 473
 642 0 ?475 476 470 471 0 0 1 30 474 5 0 477 471 478 0 +-.001112727078440592 -.0
0255 .002 .707106781186551 -.707106781186544 0 16 477 4 0 ?479 480 481 474 0 0 1
 30 478 8 0 480 474 482 0 +-.001112727078440592 -.00255 .002 1 0 0 16 480 7 0 ?1
22 483 477 478 0 0 1 30 482 11 0 483 478 484 0 +.001112727078440592 -.00255 .002
 .707106781186551 .707106781186544 0 16 483 10 0 ?119 485 480 482 0 0 1 30 484 1
4 0 485 482 486 0 +.00192900863361965 -.001733718444820955 .002 1 0 0 16 485 13
 0 ?116 487 483 484 0 0 1 30 486 17 0 487 484 488 0 +.002519696540022235 -.00173
3718444820955 .002 0 1 0 16 487 16 0 ?113 489 485 486 0 0 1 30 488 32 0 489 486
 490 0 +-.002519696540022235 .00255 .002 -1 0 0 16 489 31 0 ?110 491 487 488 0 0
 1 30 490 35 0 491 488 492 0 +-.002519696540022235 .0011917852083275 .002 223511
4874003975e-30 -1 0 16 491 34 0 ?107 493 489 490 0 0 1 30 492 50 0 493 490 494 0
 +-.00192900863361965 -.001733718444820955 .002 1 0 0 16 493 49 0 ?104 495 491 4
92 0 0 1 30 494 234 0 476 492 496 0 +.00192900863361965 -.001733718444820955 0 1
 0 0 16 476 2019 0 ?101 497 473 494 0 0 1 30 496 233 0 497 494 498 0 +.002519696
540022235 -.001733718444820955 0 0 1 0 16 497 185 0 ?499 500 476 496 0 0 1 30 49
8 232 0 500 496 501 0 +.002519696540022235 -.00119737720398921 0 1 0 0 16 500 18
1 0 ?502 503 497 498 0 0 1 30 501 231 0 503 498 504 0 +.0027 .0011917852083275 0
 0 1 0 16 503 177 0 ?505 506 500 501 0 0 1 30 504 230 0 506 501 507 0 +.00251969
6540022235 .0011917852083275 0 -1 0 0 16 506 173 0 ?167 508 503 504 0 0 1 30 507
 226 0 508 504 509 0 +-.002519696540022235 .0011917852083275 0 -1 -2405283121287
175e-30 0 16 508 157 0 ?510 511 506 507 0 0 1 30 509 225 0 511 507 512 0 +-.0027
 .0011917852083275 0 0 -1 0 16 511 153 0 ?513 514 508 509 0 0 1 30 512 224 0 514
 509 515 0 +-.002519696540022235 -.00119737720398921 0 1 0 0 16 514 149 0 ?516 5
17 511 512 0 0 1 30 515 223 0 517 512 518 0 +-.002519696540022235 -.001733718444
820955 0 0 -1 0 16 517 145 0 ?519 481 514 515 0 0 1 30 518 222 0 481 515 520 0 +
-.00192900863361965 -.001733718444820955 0 1 0 0 16 481 141 0 ?521 477 517 518 0
 0 1 30 520 318 0 495 518 522 0 +-.00192900863361965 -.001733718444820955 .002 0
 0 -1 16 495 254 0 ?523 524 493 520 0 0 1 30 522 319 0 524 520 525 0 +-.00251969
6540022235 -.001733718444820955 .002 0 0 -1 16 524 255 0 ?79 526 495 522 0 0 1 3
0 525 320 0 526 522 527 0 +-.002519696540022235 -.00119737720398921 .002 0 0 -1
 16 526 1603 0 ?83 528 524 525 0 0 1 30 527 321 0 528 525 529 0 +-.0027 -.001197
37720398921 .002 0 0 -1 16 528 1618 0 ?86 530 526 527 0 0 1 30 529 322 0 530 527
 531 0 +-.0027 .0011917852083275 .002 0 0 -1 16 530 1625 0 ?89 532 528 529 0 0 1
 30 531 323 0 532 529 533 0 +-.002519696540022235 .0011917852083275 .002 0 0 -1
 16 532 1632 0 ?147 534 530 531 0 0 1 30 533 324 0 534 531 535 0 +-.002519696540
022235 .00255 .002 0 0 -1 16 534 260 0 ?536 537 532 533 0 0 1 30 535 325 0 537 5
33 538 0 +.002519696540022235 .00255 .002 0 0 -1 16 537 261 0 ?539 540 534 535 0
 0 1 30 538 326 0 540 535 541 0 +.002519696540022235 .0011917852083275 .002 0 0
 -1 16 540 1375 0 ?144 542 537 538 0 0 1 30 541 327 0 542 538 543 0 +.0027 .0011
917852083275 .002 0 0 -1 16 542 1387 0 ?92 544 540 541 0 0 1 30 543 328 0 544 54
1 545 0 +.0027 -.00119737720398921 .002 0 0 -1 16 544 1395 0 ?95 546 542 543 0 0
 1 30 545 329 0 546 543 547 0 +.002519696540022235 -.00119737720398921 .002 0 0
 -1 16 546 1402 0 ?98 548 544 545 0 0 1 30 547 330 0 548 545 549 0 +.00251969654
0022235 -.001733718444820955 .002 0 0 -1 16 548 266 0 ?550 551 546 547 0 0 1 30
 549 331 0 551 547 552 0 +.00192900863361965 -.001733718444820955 .002 0 0 -1 16
 551 267 0 ?553 554 548 549 0 0 1 30 552 332 0 554 549 555 0 +.00111272707844059
2 -.00255 .002 0 0 -1 16 554 268 0 ?556 557 551 552 0 0 1 30 555 333 0 557 552 5
58 0 +-.001112727078440592 -.00255 .002 0 0 -1 16 557 269 0 ?559 560 554 555 0 0
 1 30 558 516 0 560 555 561 0 +-.00192900863361965 -.001733718444820955 2e-4 1 0
 0 16 560 514 0 ?562 283 557 558 0 0 1 31 561 1963 0 283 558 284 0 +-.0022 -.001
933718444820955 .001 0 -1 0 0 0 -1 .000282842712474619 16 283 1961 0 ?563 271 56
0 561 0 0 1 31 284 2152 0 271 561 564 0 -.0022 -.001933718444820955 .001 0 -1 0
 0 0 -1 .000282842712474619 30 564 2250 0 282 284 565 0 +0 -.001933718444820955
 2e-4 1 0 0 16 282 2248 0 ?294 566 271 564 0 0 1 31 565 2255 0 566 564 567 0 -.0
025 -.001733718444820955 2e-4 -1 0 0 0 0 1 2e-4 16 566 2253 0 ?60 568 282 565 0
 0 1 30 567 2263 0 568 565 569 0 -0 -.001733718444820955 0 1 0 0 16 568 2261 0 ?
42 570 566 567 0 0 1 31 569 2269 0 570 567 571 0 -.002036453394181775 -.00173371
8444820955 2e-4 1 0 0 0 0 -1 2e-4 16 570 2267 0 ?48 572 568 569 0 0 1 30 571 232
0 0 572 569 573 0 +0 -.001933718444820955 2e-4 1 0 0 16 572 2318 0 ?37 31 570 57
1 0 0 1 31 573 2328 0 31 571 20 0 --.002036453394181775 -.001733718444820955 2e-
4 -1 0 0 0 0 1 2e-4 16 31 2326 0 ?25 24 572 573 0 0 1 30 20 2334 0 24 573 7 0 -0
 -.001733718444820955 0 1 0 0 16 24 2332 0 ?246 10 31 20 0 0 1 17 246 0 574 575
 32 244 36 24 0 339 +15 574 470 0 32 576 0 17 575 0 574 577 246 77 521 481 0 0 -
17 32 0 574 246 578 11 28 383 0 36 -17 36 0 34 30 579 11 246 24 0 0 -17 339 0 58
0 23 341 244 581 325 0 521 +15 580 1905 0 339 582 0 17 23 0 580 583 339 33 579 1
0 0 329 +17 341 0 580 339 583 247 584 330 0 581 +17 581 0 585 586 521 247 339 32
5 0 0 -17 521 0 585 581 79 244 575 481 0 579 +15 585 1849 0 242 587 0 17 79 0 58
5 521 588 77 589 524 0 519 +17 579 0 34 36 35 244 23 10 0 0 -15 34 2352 0 579 18
 0 17 35 0 34 579 30 33 37 572 0 0 -17 37 0 590 257 329 26 35 572 0 29 +15 590 1
962 0 329 591 0 17 257 0 590 69 37 253 29 322 0 321 +17 329 0 590 37 255 33 583
 327 0 35 +17 29 0 27 25 321 26 257 322 0 0 -15 27 1039 0 29 592 0 17 321 0 27 2
9 593 253 594 318 0 563 +17 593 0 27 321 333 61 252 342 0 594 -17 594 0 595 596
 563 61 321 318 0 0 -17 563 0 595 594 597 253 69 283 0 0 +15 595 2000 0 596 598
 0 17 597 0 595 563 596 67 66 316 0 0 -17 69 0 590 255 257 67 563 283 0 599 -17
 255 0 590 329 69 243 599 324 0 584 +17 599 0 600 66 584 67 255 324 0 597 -15 60
0 1975 0 599 601 0 17 66 0 600 249 599 64 597 316 0 586 +17 584 0 600 599 249 24
3 341 330 0 583 -17 249 0 600 584 66 247 586 334 0 341 +17 583 0 580 341 23 243
 329 327 0 0 -17 586 0 585 602 581 64 249 334 0 337 -16 334 1967 0 ?249 335 331
 332 335 335 1 17 602 0 585 242 586 250 337 335 0 0 -17 337 0 603 63 252 64 602
 335 0 596 +15 603 1901 0 337 604 0 17 63 0 603 252 337 61 596 319 0 593 +17 252
 0 603 337 63 250 593 342 0 333 +17 596 0 595 597 594 64 63 319 0 0 -16 319 1992
 0 ?63 331 318 315 316 316 1 17 333 0 27 593 605 250 242 331 0 602 +17 605 0 27
 333 606 240 217 369 0 0 -17 242 0 585 562 602 240 333 331 0 607 -17 562 0 585 6
08 242 139 607 560 0 523 +17 607 0 609 217 141 240 562 560 0 605 -15 609 932 0 1
82 610 0 17 217 0 609 214 607 215 605 369 0 606 +17 141 0 609 607 138 139 457 45
5 0 562 -17 138 0 609 141 135 136 460 458 0 457 -17 457 0 611 612 523 136 141 45
5 0 559 +15 611 300 0 523 613 0 17 612 0 611 614 457 80 559 557 0 0 -17 523 0 61
1 457 614 139 608 495 0 0 +17 559 0 615 460 124 136 612 557 0 0 +15 615 298 0 55
9 616 0 17 460 0 615 617 559 133 138 458 0 556 +17 124 0 615 559 617 80 122 480
 0 479 -17 617 0 615 124 460 120 556 554 0 618 -17 122 0 619 119 479 120 124 480
 0 617 +17 479 0 619 122 104 80 614 477 0 612 +15 619 1370 0 107 620 0 17 104 0
 619 479 107 76 588 493 0 608 +17 614 0 611 523 612 76 479 477 0 0 -17 107 0 619
 104 110 105 621 491 0 589 +17 588 0 585 79 608 105 104 493 0 0 -17 608 0 585 58
8 562 76 523 495 0 614 -17 110 0 619 107 113 108 622 489 0 623 +17 621 0 624 536
 589 108 107 491 0 0 -17 589 0 624 621 519 105 79 524 0 588 -15 624 272 0 589 62
5 0 17 519 0 624 589 83 77 577 517 0 575 +17 83 0 624 519 72 81 626 526 0 516 +1
7 577 0 574 627 575 81 519 517 0 0 -17 627 0 574 628 577 84 516 514 0 0 -17 628
 0 574 205 627 87 513 511 0 0 -17 516 0 629 626 86 81 627 514 0 577 +15 629 1621
 0 630 631 0 17 626 0 629 630 516 70 83 526 0 0 -17 86 0 629 516 630 84 632 528
 0 513 +17 630 0 629 86 626 234 348 346 0 632 -17 632 0 633 634 513 234 86 528 0
 0 -17 513 0 633 632 89 84 628 511 0 627 +15 633 1628 0 634 635 0 17 89 0 633 51
3 634 87 636 530 0 510 +17 634 0 633 89 632 231 236 349 0 636 -17 636 0 637 638
 510 231 89 530 0 0 -17 510 0 637 636 408 87 205 508 0 628 +15 637 1635 0 638 63
9 0 17 408 0 637 510 640 203 641 406 0 382 +17 205 0 574 642 628 203 510 508 0 4
08 -17 642 0 574 643 205 151 382 362 0 0 -17 643 0 574 644 642 73 394 366 0 0 -1
7 382 0 645 641 153 203 642 362 0 0 +15 645 1015 0 382 646 0 17 641 0 645 647 38
2 197 408 406 0 640 -17 153 0 645 382 647 151 648 380 0 394 +17 647 0 645 153 64
1 177 219 363 0 0 -17 648 0 649 650 394 177 153 380 0 647 -17 394 0 649 648 398
 151 643 366 0 642 +15 649 1055 0 394 651 0 17 398 0 649 394 650 73 150 396 0 64
3 +17 650 0 649 398 648 148 208 378 0 0 -17 150 0 652 653 75 148 398 396 0 377 -
15 652 1051 0 75 654 0 17 653 0 652 196 150 209 377 375 0 0 -17 75 0 652 150 196
 73 644 391 0 398 +17 377 0 609 208 211 148 653 375 0 650 +17 208 0 609 219 377
 177 650 378 0 648 +17 211 0 609 377 214 209 655 373 0 656 +17 214 0 609 211 217
 212 657 371 0 658 +17 655 0 659 200 656 212 211 373 0 0 -17 656 0 659 655 390 2
09 196 399 0 653 -15 659 1047 0 390 660 0 17 390 0 659 656 200 194 661 388 0 644
 +17 196 0 652 75 653 194 656 399 0 390 +17 200 0 659 390 655 198 658 401 0 387
 +17 661 0 574 578 644 198 390 388 0 0 -17 644 0 574 661 643 194 75 391 0 0 -17
 578 0 574 32 661 201 387 385 0 0 -17 387 0 662 658 405 198 578 385 0 661 +15 66
2 1043 0 387 663 0 17 658 0 662 657 387 212 200 401 0 655 -17 405 0 662 387 657
 201 606 403 0 578 +17 657 0 662 405 658 215 214 371 0 0 -17 606 0 27 605 28 215
 405 403 0 657 -17 28 0 27 606 25 201 32 383 0 405 +14 663 1040 664 ?660 592 662
 5 665 -0 0 660 592 22 81 1 664 2532 666 663 667 0 0 668 669 14 660 1044 668 ?65
4 663 659 5 670 -0 0 654 663 22 14 592 1036 671 ?663 646 27 5 672 -0 0 663 646 2
2 51 665 1082 0 663 670 672 0 +-.001905718252598055 -.00119737720398921 2e-4 0 0
 -1 .000130735141583722 -1 0 0 13 22 101 0 0 0 0 0 0 9 16 14 16 2165 673 ?674 0
 285 5 675 -676 676 674 0 22 81 1 673 2535 666 16 677 0 671 678 679 14 674 2033
 678 ?601 16 680 5 681 -0 0 601 16 22 50 675 2106 0 676 682 683 0 +.002036453394
181775 -.001933718444820955 .001 0 0 -1 -1 0 0 14 676 2088 684 ?293 685 686 5 67
5 -16 16 293 685 22 81 1 684 2537 666 676 687 0 678 688 689 14 293 2096 688 ?273
 676 278 5 682 +0 0 273 676 22 14 685 2084 690 ?676 598 691 5 683 -0 0 676 598 2
2 15 686 2164 0 275 676 0 17 275 0 686 692 693 264 263 292 0 694 -17 692 0 686 6
93 275 55 694 309 0 695 +17 693 0 686 275 692 261 57 300 0 0 -17 263 0 269 51 26
6 261 275 292 0 276 +16 292 2180 0 ?263 306 277 291 274 274 1 17 694 0 680 54 69
5 264 692 309 0 287 -15 680 2031 0 696 674 0 17 54 0 680 696 694 52 287 290 0 30
8 -17 695 0 680 694 466 55 312 302 0 0 -16 309 2156 0 ?692 290 306 307 290 290 1
 17 466 0 680 695 553 183 132 464 0 312 +17 312 0 697 698 57 183 695 302 0 0 +15
 697 2174 0 437 699 0 17 698 0 697 170 312 186 185 417 0 0 -17 57 0 697 312 276
 55 693 300 0 692 +17 276 0 697 57 281 261 51 277 0 693 -17 281 0 697 276 48 49
 279 298 0 0 -16 277 2181 0 ?51 292 274 304 0 0 1 31 304 2196 0 277 291 303 0 -.
002036453394181775 -.002033718444820955 .001 1 0 0 0 0 -1 .0002515005123758955 3
1 291 2197 0 274 0 304 0 -.0022 -.002033718444820955 .001 0 0 -1 -1 0 0 3e-4 17
 48 0 697 281 437 46 700 570 0 279 +17 279 0 278 294 270 46 281 298 0 701 +17 29
4 0 278 260 279 43 701 282 0 295 +17 701 0 702 700 45 46 294 282 0 0 -15 702 228
2 0 700 703 0 17 700 0 702 704 701 38 48 570 0 0 -17 45 0 702 701 704 43 60 566
 0 294 -17 704 0 702 45 700 58 42 568 0 0 -17 60 0 691 308 295 58 45 566 0 696 +
15 691 2087 0 295 685 0 17 308 0 691 297 60 52 696 306 0 288 +17 295 0 691 60 29
7 43 260 296 0 0 -17 696 0 680 101 54 58 308 306 0 705 -17 101 0 680 706 696 99
 705 476 0 550 +17 705 0 707 42 708 58 101 476 0 704 -15 707 500 0 705 709 0 17
 42 0 707 710 705 38 704 568 0 437 +17 708 0 707 705 711 99 499 497 0 0 -17 711
 0 707 708 712 96 502 500 0 0 -17 499 0 713 714 550 96 708 497 0 711 +15 713 157
4 0 714 715 0 17 714 0 713 355 499 228 98 546 0 0 -17 550 0 713 499 716 99 706 5
48 0 708 +17 716 0 713 550 717 114 113 487 0 0 -17 706 0 680 718 101 114 550 548
 0 716 -17 718 0 680 553 706 117 116 485 0 0 -17 553 0 680 466 718 130 719 551 0
 0 +17 116 0 619 113 119 114 718 485 0 706 +17 113 0 619 110 116 111 716 487 0 7
17 +17 119 0 619 116 122 117 618 483 0 719 +17 618 0 720 556 719 120 119 483 0 0
 -17 719 0 720 618 463 117 553 551 0 718 -15 720 296 0 556 721 0 17 463 0 720 71
9 556 130 135 461 0 553 +17 556 0 720 463 618 133 617 554 0 0 +17 135 0 609 138
 132 133 463 461 0 460 -17 132 0 609 135 185 130 466 464 0 463 -17 185 0 609 132
 188 183 698 417 0 466 +17 188 0 609 185 191 186 722 415 0 723 +17 191 0 609 188
 193 189 724 412 0 725 +17 722 0 726 173 723 189 188 415 0 0 -17 723 0 726 722 4
34 186 170 449 0 698 -15 726 979 0 434 727 0 17 434 0 726 723 173 168 728 432 0
 710 +17 170 0 697 437 698 168 723 449 0 434 +17 437 0 697 48 170 38 710 435 0 7
00 +17 710 0 707 728 42 168 437 435 0 0 -17 728 0 707 729 710 171 434 432 0 0 -1
7 729 0 707 730 728 174 431 429 0 0 -17 730 0 707 731 729 157 428 409 0 0 -17 43
1 0 732 725 176 171 729 429 0 728 +15 732 975 0 431 733 0 17 725 0 732 724 431 1
89 173 451 0 722 -17 176 0 732 431 724 174 734 453 0 428 +17 724 0 732 176 725 1
64 191 412 0 0 -17 734 0 735 736 428 164 176 453 0 724 -17 428 0 735 734 159 174
 730 409 0 729 +15 735 971 0 428 737 0 17 159 0 735 428 736 157 738 426 0 442 +1
7 736 0 735 159 734 160 193 410 0 0 -17 738 0 739 740 442 160 159 426 0 736 -17
 442 0 739 738 163 157 731 413 0 730 +15 739 1011 0 442 741 0 17 163 0 739 442 7
40 161 156 444 0 440 +17 731 0 707 742 730 161 442 413 0 0 -17 742 0 707 743 731
 165 440 438 0 0 -17 743 0 707 712 742 90 167 506 0 0 -17 440 0 744 156 448 161
 742 438 0 731 +15 744 1007 0 440 745 0 17 156 0 744 746 440 154 163 444 0 423 -
17 448 0 744 440 746 165 747 446 0 742 +17 746 0 744 448 156 180 423 421 0 0 -17
 747 0 748 749 167 180 448 446 0 746 -15 748 1390 0 750 751 0 17 749 0 748 752 7
47 142 182 419 0 0 -17 167 0 748 747 92 165 743 506 0 448 +17 92 0 748 167 750 9
0 753 542 0 505 +17 750 0 748 92 752 222 227 356 0 753 -17 753 0 754 755 505 222
 92 542 0 0 -17 505 0 754 753 95 90 712 503 0 743 +15 754 1398 0 755 756 0 17 95
 0 754 505 755 93 757 544 0 502 +17 712 0 707 711 743 93 505 503 0 0 -17 755 0 7
54 95 753 206 224 358 0 757 -17 757 0 758 759 502 206 95 544 0 0 -17 502 0 758 7
57 98 93 711 500 0 712 +15 758 1405 0 759 760 0 17 98 0 758 502 759 96 714 546 0
 499 +17 759 0 758 98 757 228 221 360 0 714 -17 221 0 761 224 230 206 759 360 0
 755 +15 761 1485 0 221 762 0 17 224 0 761 227 221 222 755 358 0 750 +17 230 0 7
61 221 227 228 355 353 0 759 -17 227 0 761 230 224 225 750 356 0 355 +17 355 0 7
13 144 714 225 230 353 0 752 +17 144 0 713 475 355 142 752 540 0 763 +17 752 0 7
48 750 749 225 144 540 0 0 -17 475 0 713 717 144 102 763 473 0 539 +17 763 0 609
 182 126 142 475 473 0 749 -17 182 0 609 423 763 180 749 419 0 747 +17 126 0 609
 763 129 102 472 470 0 475 -17 129 0 609 126 368 127 469 467 0 472 -17 472 0 764
 623 539 127 126 470 0 536 +15 764 282 0 539 765 0 17 623 0 764 622 472 108 536
 534 0 621 -17 539 0 764 472 622 102 717 537 0 0 +17 536 0 624 469 621 127 623 5
34 0 0 +17 469 0 624 766 536 145 129 467 0 0 +17 766 0 624 72 469 237 147 532 0
 0 -17 72 0 624 83 766 70 239 344 0 348 +17 147 0 637 640 638 145 766 532 0 368
 +17 640 0 637 408 147 197 368 365 0 0 -17 638 0 637 147 636 237 233 351 0 766 -
17 368 0 609 129 219 145 640 365 0 469 +17 219 0 609 368 208 197 647 363 0 641 +
17 233 0 767 236 239 231 638 351 0 634 +15 767 1734 0 233 768 0 17 236 0 767 348
 233 234 634 349 0 630 +17 239 0 767 233 348 237 72 344 0 638 -17 348 0 767 239
 236 70 630 346 0 626 +14 768 1731 769 ?604 762 767 5 770 +0 0 604 762 22 81 1 7
69 2540 666 768 771 0 690 772 773 14 604 1898 772 ?582 768 603 5 774 -601 601 58
2 768 22 14 762 1482 775 ?768 651 761 5 776 +0 0 768 651 22 50 770 1761 0 768 77
4 776 0 +-.003719696540022235 .00200899744121246 8e-4 0 0 1 1 0 0 50 774 1919 0
 604 777 770 0 +-.002036453394181775 -.001933718444820955 .001 0 0 -1 -1 0 0 50
 776 1520 0 762 770 778 0 +.003719696540022235 -.001433458587924558 8e-4 0 0 1 1
 0 0 50 778 1085 0 651 776 779 0 +-.0015 .0011917852083275 2e-4 3061423360873175
e-31 -1 0 1 3061423360873175e-31 0 14 651 1052 780 ?762 654 649 5 778 -0 0 762 6
54 22 50 779 1084 0 654 778 670 0 +-.0015 -.00119737720398921 2e-4 -1 -181520045
1666545e-31 0 1815200451666545e-31 -1 0 14 654 1048 781 ?651 660 652 5 779 -0 0
 651 660 22 50 670 1083 0 660 779 665 0 +-.0015 -.00119737720398921 2e-4 0 1 0 0
 0 1 81 1 781 2544 666 654 782 0 780 783 784 80 1 666 785 786 9000 1 1 1 1 1 1 1
 1 0 FFFFTFTFFFFFFF1 81 1 782 2415 787 654 0 781 788 789 790 81 1 780 2543 666 6
51 789 0 775 781 791 81 1 783 2545 666 715 792 0 781 793 794 82 1 784 -187465703
6 14 715 285 783 ?765 721 713 5 795 -0 0 765 721 22 81 1 792 2400 787 715 0 783
 796 797 798 81 1 793 2546 666 751 799 0 783 800 801 82 1 794 -1985150730 14 751
 1391 793 ?620 756 748 5 802 -0 0 620 756 22 81 1 799 2394 787 751 0 793 803 804
 805 81 1 800 2547 666 756 803 0 793 806 807 82 1 801 -1764687626 14 756 1399 80
0 ?751 760 754 5 808 -0 0 751 760 22 81 1 803 2393 787 756 0 800 809 799 810 81
 1 806 2548 666 760 809 0 800 811 812 82 1 807 -1763901194 14 760 1406 806 ?756
 631 758 5 813 -0 0 756 631 22 81 1 809 2392 787 760 0 806 814 803 815 81 1 811
 2549 666 631 814 0 806 816 817 82 1 812 -1763180298 14 631 1622 811 ?760 635 62
9 5 818 -0 0 760 635 22 81 1 814 2391 787 631 0 811 819 809 820 81 1 816 2550 66
6 635 819 0 811 821 822 82 1 817 -1727397640 14 635 1629 816 ?631 639 633 5 823
 -0 0 631 639 22 81 1 819 2390 787 635 0 816 824 814 825 81 1 821 2551 666 639 8
24 0 816 826 827 82 1 822 -1725759240 14 639 1636 821 ?635 587 637 5 828 -0 0 63
5 587 22 81 1 824 2389 787 639 0 821 829 819 830 81 1 826 2552 666 703 831 0 821
 832 833 82 1 827 -1725038344 14 703 2281 826 ?18 273 702 5 19 +0 0 18 273 22 81
 1 831 2427 787 703 0 826 834 835 836 81 1 832 2553 666 699 837 0 826 838 839 82
 1 833 -1605172993 14 699 980 832 ?745 727 697 5 840 -0 0 745 727 22 81 1 837 24
08 787 699 0 832 841 842 843 81 1 838 2554 666 709 844 0 832 845 846 82 1 839 -1
901330177 14 709 472 838 ?613 620 707 5 847 +576 576 613 620 22 81 1 844 2396 78
7 709 0 838 804 848 849 81 1 845 2555 666 18 835 0 838 850 851 82 1 846 -1831534
337 14 18 2351 845 ?0 703 34 5 6 +0 0 0 703 22 81 1 835 2428 787 18 0 845 831 0
 852 81 1 850 2556 666 576 853 0 845 854 855 82 1 851 -1596129024 14 576 139 850
 ?610 625 574 5 847 +709 709 610 625 22 81 1 853 2403 787 576 0 850 856 857 858
 81 1 854 2557 666 591 859 0 850 860 861 82 1 855 -1990262528 14 591 1910 854 ?5
98 582 590 5 862 +0 0 598 582 22 81 1 859 2421 787 591 0 854 863 864 865 81 1 86
0 2558 666 598 864 0 854 866 867 82 1 861 -1641152256 14 598 1998 860 ?685 591 5
95 5 868 +0 0 685 591 22 81 1 864 2422 787 598 0 860 859 869 870 81 1 866 2559 6
66 273 834 0 860 871 872 82 1 867 -1633025794 14 273 2187 866 ?703 293 269 5 873
 -0 0 703 293 22 81 1 834 2426 787 273 0 866 874 831 875 81 1 871 2560 666 601 8
76 0 866 877 878 82 1 872 -1612775170 14 601 1976 871 ?587 674 600 5 774 -604 60
4 587 674 22 81 1 876 2387 787 601 0 871 879 829 880 81 1 877 2561 666 587 829 0
 871 881 882 82 1 878 -1631846146 14 587 1851 877 ?639 601 585 5 883 -0 0 639 60
1 22 81 1 829 2388 787 587 0 877 876 824 884 81 1 881 2562 666 625 856 0 877 885
 886 82 1 882 -1638006528 14 625 273 881 ?576 765 624 5 887 -0 0 576 765 22 81 1
 856 2402 787 625 0 881 797 853 888 81 1 885 2563 666 620 804 0 881 889 890 82 1
 886 -1986723592 14 620 1372 885 ?709 751 619 5 891 -0 0 709 751 22 81 1 804 239
5 787 620 0 885 799 844 892 81 1 889 2564 666 765 797 0 885 893 894 82 1 890 -17
71962120 14 765 283 889 ?625 715 764 5 895 -0 0 625 715 22 81 1 797 2401 787 765
 0 889 792 856 896 81 1 893 2565 666 610 857 0 889 897 898 82 1 894 -1985412876
 14 610 930 893 ?737 576 609 5 899 -0 0 737 576 22 81 1 857 2404 787 610 0 893 8
53 900 901 81 1 897 2566 666 737 900 0 893 902 903 82 1 898 -1817771778 14 737 9
68 897 ?733 610 735 5 904 -0 0 733 610 22 81 1 900 2405 787 737 0 897 857 905 90
6 81 1 902 2567 666 733 905 0 897 907 908 82 1 903 -1900543756 14 733 972 902 ?7
27 737 732 5 909 -0 0 727 737 22 81 1 905 2406 787 733 0 902 900 841 910 81 1 90
7 2568 666 727 841 0 902 911 912 82 1 908 -1900805900 14 727 976 907 ?699 733 72
6 5 913 -0 0 699 733 22 81 1 841 2407 787 727 0 907 905 837 914 81 1 911 2569 66
6 745 842 0 907 915 916 82 1 912 -1901068044 14 745 1004 911 ?741 699 744 5 917
 -0 0 741 699 22 81 1 842 2409 787 745 0 911 837 918 919 81 1 915 2570 666 741 9
18 0 911 920 921 82 1 916 -1902903052 14 741 1008 915 ?646 745 739 5 922 -0 0 64
6 745 22 81 1 918 2410 787 741 0 915 842 923 924 81 1 920 2571 666 646 923 0 915
 925 926 82 1 921 -1903165196 14 646 1012 920 ?592 741 645 5 927 -0 0 592 741 22
 81 1 923 2411 787 646 0 920 918 928 929 81 1 925 2572 666 582 863 0 920 930 931
 82 1 926 -1872297740 14 582 1902 925 ?591 604 580 5 777 -0 0 591 604 22 81 1 86
3 2420 787 582 0 925 932 859 933 81 1 930 2573 666 721 796 0 925 934 935 82 1 93
1 -1641676544 14 721 297 930 ?715 616 720 5 936 -0 0 715 616 22 81 1 796 2399 78
7 721 0 930 937 792 938 81 1 934 2574 666 616 937 0 930 939 940 82 1 935 -198357
7868 14 616 299 934 ?721 613 615 5 941 -0 0 721 613 22 81 1 937 2398 787 616 0 9
34 848 796 942 81 1 939 2575 666 613 848 0 934 0 943 82 1 940 -1983315724 14 613
 301 939 ?616 709 611 5 944 -0 0 616 709 22 81 1 848 2397 787 613 0 939 844 937
 945 82 1 943 -1983053580 80 1 787 0 946 8001 0 0 0 0 3 5 0 0 0 FFFFTFTFFFFFFF2
 83 3 945 .43921568627451 .43921568627451 .43921568627451 79 15 946 SDL/TYSA_COL
OUR50 944 317 0 613 941 19 0 +-.001112727078440592 -.00255 .002 .707106781186544
 .707106781186552 0 -.707106781186552 .707106781186544 0 50 941 316 0 616 936 94
4 0 +-.001112727078440592 -.00255 .002 0 1 0 0 0 1 51 19 2293 0 703 944 6 0 +0 -
.001733718444820955 2e-4 1 0 0 2e-4 0 0 -1 50 936 315 0 721 681 941 0 +.00111272
7078440592 -.00255 .002 -.707106781186544 .707106781186552 0 -.707106781186552 -
.707106781186544 0 50 681 314 0 674 813 936 0 +.00192900863361965 -.001733718444
820955 .002 0 1 0 0 0 1 50 813 312 0 760 808 681 0 +.002519696540022235 -.001197
37720398921 .002 0 1 0 0 0 1 50 808 311 0 756 802 813 0 +.0027 .0011917852083275
 .002 -1 0 0 0 0 1 50 802 310 0 751 795 808 0 +.002519696540022235 .001191785208
3275 .002 0 -1 0 0 0 -1 50 795 309 0 715 895 802 0 +.002519696540022235 .0011917
852083275 .002 -1 0 0 0 0 1 50 895 308 0 765 828 795 0 +-.002519696540022235 .00
255 .002 0 -1 0 0 0 -1 50 828 306 0 639 823 895 0 +-.002519696540022235 .0011917
852083275 .002 2405283121287175e-30 -1 0 1 2405283121287175e-30 0 50 823 305 0 6
35 818 828 0 +-.0027 .0011917852083275 .002 1 0 0 0 0 -1 50 818 304 0 631 887 82
3 0 +-.002519696540022235 -.00119737720398921 .002 0 1 0 0 0 1 50 887 303 0 625
 883 818 0 +-.002519696540022235 -.001733718444820955 .002 1 0 0 0 0 -1 50 883 3
02 0 587 847 887 0 +-.00192900863361965 -.001733718444820955 .002 0 1 0 0 0 1 50
 847 221 0 576 891 883 0 +0 0 0 0 0 -1 -1 0 0 50 891 2 0 620 899 847 0 +0 0 .002
 0 0 -1 -1 0 0 50 899 1063 0 610 904 891 0 +0 0 2e-4 0 0 1 1 0 0 50 904 1064 0 7
37 909 899 0 +.0015 -.00119737720398921 2e-4 1 -1815200451666545e-31 0 181520045
1666545e-31 1 0 50 909 1065 0 733 913 904 0 +.0015 -.00119737720398921 2e-4 0 1
 0 0 0 1 51 913 1066 0 727 840 909 0 +.001905718252598055 -.00119737720398921 2e
-4 0 0 -1 .000130735141583722 -1 0 0 50 840 1067 0 699 917 913 0 +.0020364533941
81775 -.001733718444820955 2e-4 1 0 0 0 0 -1 51 917 1073 0 745 922 840 0 +.00233
8547832857455 .0011917852083275 2e-4 0 0 -1 .0001302484278537194 -1 0 0 50 922 1
074 0 741 927 917 0 +.0015 .0011917852083275 2e-4 -3061423360873175e-31 -1 0 1 -
3061423360873175e-31 0 51 927 1075 0 646 672 922 0 +-.002338547832857455 .001191
7852083275 2e-4 0 0 -1 .0001302484278537194 -1 0 0 50 672 1081 0 592 665 927 0 +
-.002036453394181775 -.001733718444820955 2e-4 -1 0 0 0 0 1 83 3 942 .4392156862
7451 .43921568627451 .43921568627451 83 3 938 .43921568627451 .43921568627451 .4
3921568627451 81 1 932 2419 787 604 0 772 771 863 947 83 3 933 1 .8 .68627450980
3922 81 1 772 2541 666 604 932 0 769 775 948 81 1 771 2418 787 768 0 769 949 932
 950 83 3 947 1 .8 .686274509803922 81 1 949 2417 787 762 0 775 789 771 951 83 3
 950 1 .694117647058824 .3098039215686275 81 1 775 2542 666 762 949 0 772 780 95
2 81 1 789 2416 787 651 0 780 782 949 953 83 3 951 1 .694117647058824 .309803921
5686275 83 3 953 1 .694117647058824 .3098039215686275 82 1 952 -1765474058 82 1
 948 -1641873154 50 777 1920 0 582 862 774 0 +-.0025 -.001933718444820955 0 1 0
 0 0 0 -1 50 862 1923 0 591 868 777 0 +0 -.001933718444820955 0 0 -1 0 0 0 -1 53
 868 2006 0 598 683 862 0 +-.0022 -.002033718444820955 .001 3e-4 0 1 0 1 0 0 50
 683 2105 0 685 675 868 0 +.0025 -.001933718444820955 0 -1 0 0 0 0 1 81 1 928 24
12 787 592 0 671 923 667 954 83 3 929 1 .694117647058824 .3098039215686275 81 1
 671 2534 666 592 928 0 668 673 955 81 1 667 2413 787 663 0 664 928 788 956 83 3
 954 1 .694117647058824 .3098039215686275 81 1 788 2414 787 660 0 668 667 782 95
7 83 3 956 1 .694117647058824 .3098039215686275 81 1 668 2533 666 660 788 0 664
 671 958 83 3 957 1 .694117647058824 .3098039215686275 82 1 958 -1874394892 82 1
 955 -1873870592 83 3 924 1 .694117647058824 .3098039215686275 83 3 919 1 .69411
7647058824 .3098039215686275 83 3 914 1 .694117647058824 .3098039215686275 83 3
 910 1 .694117647058824 .3098039215686275 83 3 906 1 .694117647058824 .309803921
5686275 83 3 901 .43921568627451 .43921568627451 .43921568627451 83 3 896 .43921
568627451 .43921568627451 .43921568627451 83 3 892 .43921568627451 .439215686274
51 .43921568627451 83 3 888 .43921568627451 .43921568627451 .43921568627451 83 3
 884 .43921568627451 .43921568627451 .43921568627451 81 1 879 2386 787 674 0 678
 677 876 959 83 3 880 1 .8 .686274509803922 81 1 678 2536 666 674 879 0 673 684
 960 81 1 677 2385 787 16 0 673 0 879 961 83 3 959 .43921568627451 .439215686274
51 .43921568627451 83 3 961 1 .8 .686274509803922 82 1 960 -1617755905 81 1 874
 2425 787 293 0 688 687 834 962 83 3 875 1 .8 .686274509803922 81 1 688 2538 666
 293 874 0 684 690 963 81 1 687 2424 787 676 0 684 869 874 964 83 3 962 1 .8 .68
6274509803922 81 1 869 2423 787 685 0 690 864 687 965 83 3 964 1 .8 .68627450980
3922 81 1 690 2539 666 685 869 0 688 769 966 83 3 965 1 .8 .686274509803922 82 1
 966 -1622212353 82 1 963 -1621491457 53 873 2195 0 273 0 682 0 -.0022 -.0020337
18444820955 .001 3e-4 0 -1 0 -1 0 0 50 682 2109 0 293 873 675 0 +0 -.00193371844
4820955 0 0 -1 0 0 0 -1 83 3 870 1 .8 .686274509803922 83 3 865 1 .6941176470588
24 .3098039215686275 83 3 858 1 .694117647058824 .3098039215686275 83 3 852 1 .6
94117647058824 .3098039215686275 83 3 849 1 .694117647058824 .3098039215686275 8
3 3 843 1 .694117647058824 .3098039215686275 83 3 836 1 .694117647058824 .309803
9215686275 83 3 830 1 .694117647058824 .3098039215686275 83 3 825 1 .69411764705
8824 .3098039215686275 83 3 820 1 .694117647058824 .3098039215686275 83 3 815 1
 .694117647058824 .3098039215686275 83 3 810 1 .694117647058824 .309803921568627
5 83 3 805 1 .694117647058824 .3098039215686275 83 3 798 .43921568627451 .439215
68627451 .43921568627451 82 1 791 -1874919180 83 3 790 1 .694117647058824 .30980
39215686275 79 14 786 SWEntUnchanged82 1 773 -1730412296 17 622 0 764 539 623 11
1 110 489 0 0 -17 717 0 713 716 475 111 539 537 0 622 -17 423 0 609 179 182 154
 746 421 0 740 +17 179 0 609 193 423 160 740 424 0 738 +17 740 0 739 163 738 154
 179 424 0 0 -17 193 0 609 191 179 164 736 410 0 734 +17 173 0 726 434 722 171 7
25 451 0 431 +17 297 0 691 295 308 258 288 314 0 286 -17 288 0 285 287 286 52 29
7 314 0 0 +82 1 689 -1622015746 82 1 679 -1611595522 82 1 669 -1874132748 19 17
 335 0 1 0 9 5 S74 20 15 9 0 939 967 968 969 970 835 971 13 2 0 0 0 0 0 0 0 0 0
 0 0 81 2 967 2203 972 1 0 968 0 0 0 973 81 2 968 2217 974 1 967 969 0 0 0 975 8
1 1 969 2377 976 1 968 970 0 0 977 81 2 970 2384 978 1 969 971 0 0 979 0 81 2 97
1 2429 980 1 970 13 0 0 0 981 81 2 13 2430 982 1 971 2 0 0 0 0 80 2 982 983 984
 9000 0 0 0 0 3 5 0 0 0 FFTFFFFFFFFFFF9 1 79 16 984 BODY_RECIPE_200180 2 980 985
 986 9000 0 0 0 0 3 5 0 0 0 FFTFFFFFFFFFFF9 1 82 1 981 1 79 24 986 BODY_IN_LIGHT
WEIGHT_PERM80 2 978 987 988 8004 0 0 0 0 3 5 0 0 0 FFTFFFFFFFFFFF2 3 83 1 979 78
e2 79 16 988 SDL/TYSA_DENSITY80 1 976 989 990 9000 1 1 1 1 1 1 1 1 0 FFTFFFFFFFF
FFF1 82 1 977 9275438 79 10 990 BODY_MATCH80 2 974 991 992 9000 0 0 0 0 3 5 0 0
 0 FFTFFFFFFFFFFF9 1 82 1 975 160 79 30 992 LAST_BODY_MODIFYING_FEATURE_ID80 2 9
72 993 994 9000 0 0 0 0 3 5 0 0 0 FFTFFFFFFFFFFT9 1 82 1 973 185 79 19 994 ENT_T
IME_STAMP_200180 2 12 995 996 9000 0 0 0 0 3 5 0 0 0 FFTFFFFFFFFFFF9 1 82 1 14 1
09 79 12 996 ATOM_ID_20011 0 
